<?xml version="1.0" encoding="UTF-8" standalone="no"?>
<!DOCTYPE svg PUBLIC "-//W3C//DTD SVG 1.1//EN" "http://www.w3.org/Graphics/SVG/1.1/DTD/svg11.dtd">
<svg width="100%" height="100%" viewBox="0 0 159 55" version="1.1" xmlns="http://www.w3.org/2000/svg" xmlns:xlink="http://www.w3.org/1999/xlink" xml:space="preserve" xmlns:serif="http://www.serif.com/" style="fill-rule:evenodd;clip-rule:evenodd;">
    <path d="M76,1.073C61.346,3.311 55.767,4.366 47,6.562C3.961,17.34 -13.183,37.893 11.318,49.34C21.931,54.299 24.971,53.425 16.099,47.966C-12.521,30.356 34.533,4.815 102.5,1.068L116.5,0.296L99,0.265C89.375,0.248 79.025,0.612 76,1.073M91,4.133C41.488,6.643 -0.403,27.942 14.097,43.234L17.193,46.5L15.097,43.346C2.685,24.671 54.979,3.845 110.946,5.175C120.601,5.404 126.7,5.28 124.5,4.9C117.966,3.77 104.335,3.458 91,4.133M41.132,21.281C28.509,25.315 27.516,38.062 39.345,44.219C44.714,47.014 56.607,47.272 62.365,44.72L66.229,43.006L63.964,41.172C61.904,39.504 61.33,39.465 57.631,40.739C50.025,43.36 44,40.254 44,33.712C44,30.684 45.587,26.976 47.4,25.765C49.065,24.654 56.864,24.857 59.133,26.071C60.679,26.899 61.742,26.744 63.809,25.39L66.483,23.637L62.492,21.845C57.967,19.813 46.658,19.514 41.132,21.281M71.25,20.746C69.058,21.129 69,21.462 69,33.57L69,46L77,46L77.018,31.5L81.759,38.733C86.33,45.706 86.644,45.967 90.5,45.981C94.422,45.995 94.578,45.857 98.5,38.871L102.5,31.747L102.794,38.874L103.088,46L115.06,46L114.5,20.5L109,20.241C102.179,19.919 102.077,19.99 97.241,28.33L93.28,35.16L89.004,28.33C86.652,24.573 84.605,21.354 84.456,21.176C84.019,20.653 73.707,20.318 71.25,20.746M127.333,20.695C123.693,21.405 120,25.57 120,28.967C120,32.77 123.926,35.433 131.975,37.088C138.477,38.425 141.283,39.734 140.469,41.05C139.489,42.635 131.756,42.072 127.414,40.1C123.501,38.323 123.228,38.319 120.985,40.011L118.644,41.777L123.072,44.094C135.133,50.402 155.447,44.567 152.097,35.756C150.84,32.448 148.858,31.393 139.311,28.952C130.766,26.766 129.913,26.299 132.029,24.961C134.088,23.659 137.826,23.848 142.424,25.486C146.578,26.966 150.492,26 149.736,23.682C148.824,20.89 135.469,19.109 127.333,20.695" style="fill:rgb(204,159,51);stroke:rgb(250,251,251);stroke-width:1px;"/>
    <path d="M79,1.167C48.958,3.996 19.164,13.754 6.902,24.778C-3.306,33.956 -1.867,41.669 11.314,48.429C20.056,52.912 22.427,52.766 15.286,48.184C-11.386,31.068 32.532,5.086 94.876,1.098C107.45,0.293 107.462,0.29 98,0.281C92.775,0.276 84.225,0.675 79,1.167M45,20.872C30.336,24.047 26.604,36.394 38.286,43.086C45.908,47.452 69.572,45.817 63.459,41.346C62.413,40.582 60.869,40.274 60.029,40.662C59.188,41.05 56.177,41.549 53.337,41.771C46.401,42.314 44,40.077 44,33.073C44,25.189 48.951,22.407 58.102,25.149C63.268,26.696 66.775,24.486 62.613,22.305C59.466,20.656 49.675,19.86 45,20.872M129.275,20.971C114.252,24.54 118.451,34.425 136.33,37.577C140.41,38.297 142.2,40.589 139.896,42.144C138.065,43.38 130.756,42.442 126.974,40.486C122.98,38.421 118.289,40.276 121.524,42.641C128.227,47.543 145.659,47.018 150.25,41.777C154.785,36.598 150.804,31.983 139.662,29.504C131.357,27.656 129.441,26.714 130.499,25.001C131.026,24.148 132.958,23.961 136.878,24.382C148.081,25.587 148.5,25.573 148.5,24C148.5,21.135 136.525,19.248 129.275,20.971M69,33L69,45L76,45L76,38C76,34.15 76.346,31 76.768,31C77.191,31 79.513,34.15 81.929,38C86.203,44.811 86.432,45 90.411,44.998C94.431,44.995 94.566,44.877 98.436,37.998C103.312,29.329 103.579,29.329 103.168,37.998L102.836,45L115,45L115,21L102.068,21L97.681,28.569L93.294,36.139L88.576,28.569L83.858,21L69,21L69,33" style="fill:rgb(22,68,137);stroke:rgb(22,68,137);stroke-width:1px;"/>
</svg>
